# xmcd
# 
# Track frame offsets:
#     150
#     13997
#     31947
#     47360
#     66633
#     81209
#     94516
#     112142
#     128175
#     138837
#     152954
#     170499
#     185723
#     198382
#     219976
#     231097
#     248480
#     262651
#     276660
#     290183
# 
# Disc length: 4083
# 
# Revision: 1
# Processed by: cddbd v1.5.2PL0 Copyright (c) Steve Scherf et al.
# Submitted via: BonkEnc v1.0
# 
DISCID=2a0ff114
DTITLE=Bee Gees - As 20 mais de
DYEAR=0
DGENRE=Disco
TTITLE0=I STARTED A JOKE
TTITLE1=I'D LOVE YOU TO WANT TO ME
TTITLE2=DON'T FORGET TO REMEMBER
TTITLE3=HOW CAN TELL HEAR
TTITLE4=WOEDS
TTITLE5=ME AND YOU A DOG NAMED BOO
TTITLE6=HOW CAN YOU MAND BROKEM HEARTS
TTITLE7=DON T ESPECT ME TO BE YOUR FRIEND
TTITLE8=MASSACHUSSETS
TTITLE9=IT SURE TOOK A LONG TIME
TTITLE10=TOMORROW TOMORROW
TTITLE11=RINGS
TTITLE12=FRIST OF MY
TTITLE13=LET S GET TOGETHER
TTITLE14=WHEN THE SWALLOWS FLY
TTITLE15=STARDING AT THE AND OF THE LINE
TTITLE16=NETHOD TO MY MAD NESS
TTITLE17=DON T TELL ME GOOD NIGHTS
TTITLE18=RUN TO ME
TTITLE19=GOODBYE IS JUST ANOTHER WORLD
EXTD=
EXTT0=
EXTT1=
EXTT2=
EXTT3=
EXTT4=
EXTT5=
EXTT6=
EXTT7=
EXTT8=
EXTT9=
EXTT10=
EXTT11=
EXTT12=
EXTT13=
EXTT14=
EXTT15=
EXTT16=
EXTT17=
EXTT18=
EXTT19=
PLAYORDER=
